<svg viewBox="0 0 1022 264" xmlns="http://www.w3.org/2000/svg"><path d="M365.708,211.46l-1.318,0.006c-15.37,0.162 -25.165,-13.535 -24.06,-39.495c1.525,-35.586 10.744,-53.276 22.296,-72.671c1.176,-1.964 4.019,-1.964 5.188,0c11.552,19.395 20.907,37.079 22.296,72.671c0.956,24.57 -8.845,39.74 -24.402,39.488m59.394,-210.7l-0.426,0c-15.81,0 -37.944,8.238 -59.452,25.72c-21.514,-17.483 -43.649,-25.72 -59.459,-25.72l-0.426,0c-41.737,0 -75.695,32.272 -75.695,71.941l0,188.713l45.077,0l0,-188.713c0,-14.815 13.736,-26.864 30.618,-26.864l0.426,0c5.388,0 16.339,4.193 28.634,13.755c-20.558,28.867 -36.439,68.937 -39.088,121.411c-0.917,18.174 0.078,41.142 16.023,57.656c11.978,12.398 29.616,18.329 53.398,17.877l0.627,0c24.176,0.401 41.769,-5.479 53.747,-17.877c15.945,-16.514 16.94,-39.482 16.023,-57.65c-2.649,-52.481 -18.523,-92.551 -39.081,-121.424c12.288,-9.562 23.246,-13.749 28.628,-13.749l0.426,0c16.882,0 30.618,12.049 30.618,26.864l0,188.713l45.077,0l0,-188.713c0,-39.669 -33.958,-71.941 -75.695,-71.941" fill="#fff" fill-rule="nonzero"/><path d="M205.663,74.576l0,0.413c0,21.056 -8.748,40.038 -22.705,53.528c14.148,15.906 22.705,37.285 22.705,57.443l0,0.413c0,40.884 -32.664,74.028 -72.949,74.028l-126.923,0l0,-45.226l126.923,0c15.67,0 28.378,-12.896 28.378,-28.802l0,-0.413c0,-17.606 -15.383,-36.943 -29.397,-36.943l-50.498,0c-15.268,0 -28.818,-9.917 -33.65,-24.609l-6.768,-20.616l91.929,0c15.676,0 28.385,-12.896 28.385,-28.802l0,-0.413c0,-15.906 -12.709,-28.802 -28.385,-28.802l-93.693,0c-11.811,0 -22.463,-7.204 -27.009,-18.271l-11.066,-26.954l131.768,0c40.291,0 72.955,33.144 72.955,74.028" fill="#fff" fill-rule="nonzero"/><path d="M933.654,215.557c-22.303,6.441 -40.942,-4.019 -62.547,-16.133c-12.101,-6.784 -24.473,-13.723 -37.97,-17.787c-0.084,-0.026 -0.142,-0.103 -0.142,-0.194l0,-130.999c0,-0.11 0.071,-0.2 0.181,-0.213c33.015,-3.644 88.177,-3.618 118.691,21.314c16.546,13.522 24.583,33.196 24.583,60.144c-0.006,64.072 -24.428,78.55 -42.796,83.868m46.712,-179.126c-61.714,-50.284 -169.971,-28.692 -174.551,-27.743l-17.877,3.689c-0.097,0.019 -0.168,0.103 -0.168,0.207l0,166.592c0,0.103 -0.078,0.187 -0.187,0.207c-25.326,3.205 -46.505,11.733 -67.128,20.041c-24.15,9.723 -46.951,18.911 -75.973,18.911l-0.013,0c-12.508,0 -74.926,-1.932 -74.926,-40.102l0,-0.207c0,-16.023 12.986,-29.009 29.009,-29.009l69.718,0c15.583,0 29.416,-9.975 34.346,-24.758l6.823,-20.468l-110.887,0c-16.023,0 -29.009,-12.986 -29.009,-29.009c0,-16.023 12.986,-29.009 29.009,-29.009l113.581,0c9.775,0 18.601,-5.879 22.361,-14.905l12.508,-30.03c0.058,-0.136 -0.039,-0.291 -0.194,-0.291l-148.256,0c-40.994,0 -74.235,33.241 -74.235,74.241l0,0.2c0,19.899 7.927,37.957 20.752,51.273c0.071,0.084 0.071,0.2 0,0.278c-12.825,13.316 -20.752,31.38 -20.752,51.279l0,0.413c0,51.835 47.164,85.328 120.151,85.328l0.013,0c37.783,0 67.05,-11.791 92.867,-22.186c24.525,-9.879 45.704,-18.517 72.807,-18.09c11.281,0.136 24.661,7.637 38.829,15.583c25.294,14.188 56.777,31.832 97.248,20.132c62.347,-18.051 75.443,-79.19 75.443,-127.304c0.006,-40.871 -13.897,-72.923 -41.31,-95.264" fill="#fff" fill-rule="nonzero"/></svg>