<svg viewBox="0 0 935 231" xmlns="http://www.w3.org/2000/svg"><g><path d="M475.097,176.269l-0.85,0.004c-9.912,0.104 -16.229,-8.729 -15.517,-25.471c0.983,-22.95 6.929,-34.358 14.379,-46.867c0.758,-1.267 2.592,-1.267 3.346,0c7.45,12.508 13.483,23.912 14.379,46.867c0.617,15.846 -5.704,25.629 -15.738,25.467m38.304,-135.883l-0.275,-0c-10.196,0 -24.471,5.312 -38.342,16.587c-13.875,-11.275 -28.15,-16.587 -38.346,-16.587l-0.275,0c-26.917,0 -48.817,20.812 -48.817,46.396l0,121.704l29.071,0l0,-121.704c0,-9.554 8.858,-17.325 19.746,-17.325l0.275,0c3.475,0 10.537,2.704 18.467,8.871c-13.258,18.617 -23.5,44.458 -25.208,78.3c-0.592,11.721 0.05,26.533 10.333,37.183c7.725,7.996 19.1,11.821 34.438,11.529l0.404,0c15.592,0.258 26.938,-3.533 34.663,-11.529c10.283,-10.65 10.925,-25.463 10.333,-37.179c-1.708,-33.846 -11.946,-59.687 -25.204,-78.308c7.925,-6.167 14.992,-8.867 18.463,-8.867l0.275,0c10.887,0 19.746,7.771 19.746,17.325l0,121.704l29.071,0l0,-121.704c0,-25.583 -21.9,-46.396 -48.817,-46.396" fill="#999898" fill-rule="nonzero"/><path d="M371.881,87.99l0,0.267c0,13.579 -5.642,25.821 -14.643,34.521c9.124,10.258 14.643,24.046 14.643,37.046l0,0.267c0,26.367 -21.065,47.742 -47.046,47.742l-81.855,0l0,-29.167l81.855,0c10.106,0 18.302,-8.317 18.302,-18.575l0,-0.267c0,-11.354 -9.921,-23.825 -18.959,-23.825l-32.567,0c-9.847,0 -18.585,-6.396 -21.702,-15.871l-4.365,-13.296l59.286,0c10.11,0 18.306,-8.317 18.306,-18.575l0,-0.267c0,-10.258 -8.196,-18.575 -18.306,-18.575l-60.424,0c-7.617,0 -14.487,-4.646 -17.419,-11.783l-7.137,-17.383l84.979,0c25.985,0 47.05,21.375 47.05,47.742" fill="#999898" fill-rule="nonzero"/><path d="M841.374,178.911c-14.383,4.154 -26.404,-2.592 -40.337,-10.404c-7.804,-4.375 -15.783,-8.85 -24.487,-11.471c-0.054,-0.017 -0.092,-0.067 -0.092,-0.125l0,-84.483c0,-0.071 0.046,-0.129 0.117,-0.137c21.292,-2.35 56.867,-2.333 76.546,13.746c10.671,8.721 15.854,21.408 15.854,38.787c-0.004,41.321 -15.754,50.658 -27.6,54.087m30.125,-115.521c-39.8,-32.429 -109.617,-18.504 -112.571,-17.892l-11.529,2.379c-0.062,0.013 -0.108,0.067 -0.108,0.133l0,107.437c0,0.067 -0.05,0.121 -0.121,0.133c-16.333,2.067 -29.992,7.567 -43.292,12.925c-15.575,6.271 -30.279,12.196 -48.996,12.196l-0.008,0c-8.067,0 -48.321,-1.246 -48.321,-25.862l0,-0.133c0,-10.333 8.375,-18.708 18.708,-18.708l44.962,0c10.05,0 18.971,-6.433 22.15,-15.967l4.4,-13.2l-71.513,0c-10.333,0 -18.708,-8.375 -18.708,-18.708c0,-10.333 8.375,-18.708 18.708,-18.708l73.25,0c6.304,0 11.996,-3.792 14.421,-9.612l8.067,-19.367c0.038,-0.087 -0.025,-0.188 -0.125,-0.188l-95.612,0c-26.438,0 -47.875,21.437 -47.875,47.879l0,0.129c0,12.833 5.112,24.479 13.383,33.067c0.046,0.054 0.046,0.129 0,0.179c-8.271,8.587 -13.383,20.237 -13.383,33.071l0,0.267c0,33.429 30.417,55.029 77.487,55.029l0.008,0c24.367,0 43.242,-7.604 59.892,-14.308c15.817,-6.371 29.475,-11.942 46.954,-11.667c7.275,0.087 15.904,4.925 25.042,10.05c16.312,9.15 36.617,20.529 62.717,12.983c40.208,-11.642 48.654,-51.071 48.654,-82.1c0.004,-26.358 -8.962,-47.029 -26.642,-61.437" fill="#999898" fill-rule="nonzero"/></g><g><path d="M120.432,208.062c0,-46.289 -35.96,-83.816 -80.316,-83.816l0,83.816l80.316,0Z" fill="#fabd06" fill-rule="nonzero"/><path d="M40.117,40.25c0,46.289 35.96,83.816 80.316,83.816l0,-83.816l-80.316,0Z" fill="#1fa9b7" fill-rule="nonzero"/><path d="M120.432,124.064c44.357,0 80.316,-37.526 80.316,-83.816l-80.316,0l0,83.816Z" fill="#007ac7" fill-rule="nonzero"/><path d="M200.747,124.248c-44.357,0 -80.316,37.526 -80.316,83.816l80.316,0l0,-83.816Z" fill="#ff7515" fill-rule="nonzero"/></g></svg>