<svg width="1279" height="986" viewBox="0 0 1279 986" fill="none" xmlns="http://www.w3.org/2000/svg">
<path d="M191.61 98.6598C191.61 39.2798 84.2802 50.3598 0.240234 97.6598V981.98C207.43 1007.42 412.89 895.55 461.72 888.75C461.72 690.15 880.96 958.97 880.96 669.89C880.96 466.79 869.56 434.23 694.35 434.23C492.78 434.23 191.61 573.96 191.61 98.6598Z" fill="#F7C97B"/>
<path d="M1279 0C1254.72 8.91513 1106.2 66.8835 1097.3 153.666C1087.6 248.194 1135.58 209.875 1135.58 362.472C1135.58 514.389 1008.04 434.812 694.761 434.812C593.266 441.469 360.616 549.32 361.493 601.741C362.419 657.311 252.416 897 371.236 897C1173.14 897 1279 897 1279 638.141V0Z" fill="#EE800C"/>
</svg>
