<svg width="182" height="53" viewBox="0 0 182 53" fill="none" xmlns="http://www.w3.org/2000/svg">
<path d="M0.110138 0.470215H30.7001V52.1401H0.110138V42.8604H19.5401V29.8103H0.230137V20.2803H19.5401V9.8103H0.110138V0.470215Z" fill="white"/>
<path d="M129.02 0.470215H98.2501V52.1401H129.02V42.8604H109.47V29.8103H128.89V20.2803H109.47V9.8103H129.02V0.470215Z" fill="white"/>
<path d="M94.7801 52.0703L86.9401 0.410156H75.5301L63.9301 35.5203L52.6401 0.410156H41.1701L33.2701 52.0703H43.7401L48.4401 11.9402L60.7301 52.1301H67.1301C67.1301 52.1301 79.9201 13.8203 79.9201 11.8103C79.9201 9.8003 84.2501 52.1301 84.2501 52.1301L94.7801 52.0703Z" fill="white"/>
<path d="M152.84 0.440186C152.84 0.440186 135.9 0.410156 135.79 0.410156V52.1401H154.54C171.91 52.1401 181.12 41.8603 181.12 25.8103C181.12 10.3803 171.03 0.440186 152.84 0.440186ZM156.44 42.8604H146.95V9.75024C147 9.75024 155.59 9.77026 155.59 9.77026C164.8 9.77026 169.91 16.1302 169.91 26.0002C169.9 36.2802 165.23 42.8604 156.44 42.8604Z" fill="white"/>
</svg>
